{
  "accessors": [
    {
      "bufferView": 2,
      "componentType": 5126,
      "count": 15872,
      "max": [
        0.9872310161590576,
        -2.2351741790771484e-08,
        0.9872307181358337
      ],
      "min": [
        -0.9872304201126099,
        -0.9975767135620117,
        -0.9872304201126099
      ],
      "type": "VEC3"
    },
    {
      "bufferView": 2,
      "byteOffset": 190464,
      "componentType": 5126,
      "count": 15872,
      "max": [
        0.9993996024131775,
        -0.024417610839009285,
        0.9993997812271118
      ],
      "min": [
        -0.9993996620178223,
        -0.9969545006752014,
        -0.9993996620178223
      ],
      "type": "VEC3"
    },
    {
      "bufferView": 1,
      "componentType": 5126,
      "count": 15872,
      "max": [
        1.000000238418579,
        0.5000000596046448
      ],
      "min": [
        0.0,
        0.0
      ],
      "type": "VEC2"
    },
    {
      "bufferView": 2,
      "byteOffset": 380928,
      "componentType": 5126,
      "count": 15872,
      "max": [
        1.4210854715202004e-14,
        0.3769456744194031,
        1.4210854715202004e-14
      ],
      "min": [
        0.0,
        -0.6206310391426086,
        -3.552713678800501e-15
      ],
      "type": "VEC3"
    },
    {
      "bufferView": 2,
      "byteOffset": 571392,
      "componentType": 5126,
      "count": 15872,
      "max": [
        0.9994058012962341,
        -0.003045499324798584,
        0.9993996620178223
      ],
      "min": [
        -0.9994111657142639,
        -0.9755823612213135,
        -0.9993997812271118
      ],
      "type": "VEC3"
    },
    {
      "bufferView": 2,
      "byteOffset": 761856,
      "componentType": 5126,
      "count": 15872,
      "max": [
        0.11075196415185928,
        0.06007528305053711,
        0.06482047587633133
      ],
      "min": [
        -0.1201447919011116,
        -0.05837695300579071,
        -0.08025528490543365
      ],
      "type": "VEC3"
    },
    {
      "bufferView": 2,
      "byteOffset": 952320,
      "componentType": 5126,
      "count": 15872,
      "max": [
        1.9725346565246582,
        1.9854995012283325,
        1.4612547159194946
      ],
      "min": [
        -1.9687522649765015,
        -0.966600775718689,
        -1.6621345281600952
      ],
      "type": "VEC3"
    },
    {
      "bufferView": 2,
      "byteOffset": 1142784,
      "componentType": 5126,
      "count": 15872,
      "max": [
        1.9995875358581543,
        0.0552254319190979,
        1.9995874166488647
      ],
      "min": [
        -1.9995874166488647,
        -0.05521285533905029,
        -1.9995871782302856
      ],
      "type": "VEC3"
    },
    {
      "bufferView": 2,
      "byteOffset": 1333248,
      "componentType": 5126,
      "count": 15872,
      "max": [
        3.478582948446274e-05,
        6.452202796936035e-06,
        9.424984455108643e-06
      ],
      "min": [
        -2.291053533554077e-05,
        -5.796551704406738e-06,
        -8.448958396911621e-06
      ],
      "type": "VEC3"
    },
    {
      "bufferView": 2,
      "byteOffset": 1523712,
      "componentType": 5126,
      "count": 15872,
      "max": [
        0.5399705171585083,
        0.4216875433921814,
        0.537285327911377
      ],
      "min": [
        -0.5399481058120728,
        -0.1785571575164795,
        -0.5392256379127502
      ],
      "type": "VEC3"
    },
    {
      "bufferView": 2,
      "byteOffset": 1714176,
      "componentType": 5126,
      "count": 15872,
      "max": [
        1.7843881845474243,
        1.9610002040863037,
        1.982649326324463
      ],
      "min": [
        -1.8132195472717285,
        -0.4267464876174927,
        -1.9898912906646729
      ],
      "type": "VEC3"
    },
    {
      "bufferView": 0,
      "componentType": 5125,
      "count": 23808,
      "type": "SCALAR"
    },
    {
      "bufferView": 2,
      "byteOffset": 1904640,
      "componentType": 5126,
      "count": 15872,
      "max": [
        0.9872310161590576,
        0.9975767135620117,
        0.9872307181358337
      ],
      "min": [
        -0.9872304201126099,
        -2.6135239750146866e-08,
        -0.9872304201126099
      ],
      "type": "VEC3"
    },
    {
      "bufferView": 2,
      "byteOffset": 2095104,
      "componentType": 5126,
      "count": 15872,
      "max": [
        0.9993996024131775,
        0.9969546794891357,
        0.999399721622467
      ],
      "min": [
        -0.9993996024131775,
        0.02441621758043766,
        -0.9993997812271118
      ],
      "type": "VEC3"
    },
    {
      "bufferView": 1,
      "byteOffset": 126976,
      "componentType": 5126,
      "count": 15872,
      "max": [
        1.000000238418579,
        1.0000001192092896
      ],
      "min": [
        0.0,
        0.5
      ],
      "type": "VEC2"
    },
    {
      "bufferView": 2,
      "byteOffset": 2285568,
      "componentType": 5126,
      "count": 15872,
      "max": [
        0.0,
        0.6206310987472534,
        1.7763568394002505e-15
      ],
      "min": [
        -3.552713678800501e-15,
        -0.3769456148147583,
        -7.105427357601002e-15
      ],
      "type": "VEC3"
    },
    {
      "bufferView": 2,
      "byteOffset": 2476032,
      "componentType": 5126,
      "count": 15872,
      "max": [
        0.9994043707847595,
        0.9755837917327881,
        0.9993997812271118
      ],
      "min": [
        -0.9994499087333679,
        0.003045320510864258,
        -0.999399721622467
      ],
      "type": "VEC3"
    },
    {
      "bufferView": 2,
      "byteOffset": 2666496,
      "componentType": 5126,
      "count": 15872,
      "max": [
        0.11288387328386307,
        0.058684855699539185,
        0.09507068991661072
      ],
      "min": [
        -0.11182854324579239,
        -0.05866550654172897,
        -0.1026347279548645
      ],
      "type": "VEC3"
    },
    {
      "bufferView": 2,
      "byteOffset": 2856960,
      "componentType": 5126,
      "count": 15872,
      "max": [
        1.9523239135742188,
        0.9679996967315674,
        1.9423226118087769
      ],
      "min": [
        -1.9311182498931885,
        -1.9826937913894653,
        -1.9386664628982544
      ],
      "type": "VEC3"
    },
    {
      "bufferView": 2,
      "byteOffset": 3047424,
      "componentType": 5126,
      "count": 15872,
      "max": [
        1.9995876550674438,
        0.05523258447647095,
        1.9995876550674438
      ],
      "min": [
        -1.9995874166488647,
        -0.05522578954696655,
        -1.9995875358581543
      ],
      "type": "VEC3"
    },
    {
      "bufferView": 2,
      "byteOffset": 3237888,
      "componentType": 5126,
      "count": 15872,
      "max": [
        3.215298056602478e-05,
        7.152557373046875e-06,
        9.521842002868652e-06
      ],
      "min": [
        -2.9280781745910645e-05,
        -5.9604644775390625e-06,
        -6.5267086029052734e-06
      ],
      "type": "VEC3"
    },
    {
      "bufferView": 2,
      "byteOffset": 3428352,
      "componentType": 5126,
      "count": 15872,
      "max": [
        0.5409154295921326,
        0.17866212129592896,
        0.5406959652900696
      ],
      "min": [
        -0.5411955118179321,
        -0.4216875433921814,
        -0.5400710105895996
      ],
      "type": "VEC3"
    },
    {
      "bufferView": 2,
      "byteOffset": 3618816,
      "componentType": 5126,
      "count": 15872,
      "max": [
        1.8191298246383667,
        0.975581705570221,
        1.9851233959197998
      ],
      "min": [
        -1.817154884338379,
        -1.9609997272491455,
        -1.9780703783035278
      ],
      "type": "VEC3"
    },
    {
      "bufferView": 0,
      "byteOffset": 95232,
      "componentType": 5125,
      "count": 23808,
      "type": "SCALAR"
    },
    {
      "bufferView": 3,
      "componentType": 5126,
      "count": 300,
      "max": [
        12.5
      ],
      "min": [
        0.0416666679084301
      ],
      "type": "SCALAR"
    },
    {
      "bufferView": 3,
      "byteOffset": 1200,
      "componentType": 5126,
      "count": 1200,
      "max": [
        1.0
      ],
      "min": [
        0.0
      ],
      "type": "SCALAR"
    },
    {
      "bufferView": 3,
      "byteOffset": 6000,
      "componentType": 5126,
      "count": 300,
      "max": [
        12.5
      ],
      "min": [
        0.0416666679084301
      ],
      "type": "SCALAR"
    },
    {
      "bufferView": 3,
      "byteOffset": 7200,
      "componentType": 5126,
      "count": 1200,
      "max": [
        1.0
      ],
      "min": [
        0.0
      ],
      "type": "SCALAR"
    }
  ],
  "animations": [
    {
      "channels": [
        {
          "sampler": 0,
          "target": {
            "node": 4,
            "path": "weights"
          }
        },
        {
          "sampler": 1,
          "target": {
            "node": 6,
            "path": "weights"
          }
        }
      ],
      "name": "Animation",
      "samplers": [
        {
          "input": 24,
          "interpolation": "LINEAR",
          "output": 25
        },
        {
          "input": 26,
          "interpolation": "LINEAR",
          "output": 27
        }
      ]
    }
  ],
  "asset": {
    "extras": {
      "author": "tamminen (https://sketchfab.com/tamminen)",
      "license": "CC-BY-4.0 (http://creativecommons.org/licenses/by/4.0/)",
      "source": "https://sketchfab.com/3d-models/microsurface-morpher-493fbeded1744dbc91550e2d6e117224",
      "title": "Microsurface Morpher"
    },
    "generator": "Sketchfab-14.13.0",
    "version": "2.0"
  },
  "bufferViews": [
    {
      "buffer": 0,
      "byteLength": 190464,
      "name": "floatBufferViews",
      "target": 34963
    },
    {
      "buffer": 0,
      "byteLength": 253952,
      "byteOffset": 190464,
      "byteStride": 8,
      "name": "floatBufferViews",
      "target": 34962
    },
    {
      "buffer": 0,
      "byteLength": 3809280,
      "byteOffset": 444416,
      "byteStride": 12,
      "name": "floatBufferViews",
      "target": 34962
    },
    {
      "buffer": 0,
      "byteLength": 12000,
      "byteOffset": 4253696,
      "name": "floatBufferViews"
    }
  ],
  "buffers": [
    {
      "byteLength": 4265696,
      "uri": "scene.bin"
    }
  ],
  "materials": [
    {
      "alphaMode": "BLEND",
      "doubleSided": true,
      "name": "Scene_-_Root",
      "pbrMetallicRoughness": {
        "baseColorFactor": [
          0.30933427606636515,
          0.30933427606636515,
          0.30933427606636515,
          0.9798125099047921
        ],
        "roughnessFactor": 0.15085760261364606
      }
    }
  ],
  "meshes": [
    {
      "name": "mesh_0",
      "primitives": [
        {
          "attributes": {
            "NORMAL": 1,
            "POSITION": 0,
            "TEXCOORD_0": 2
          },
          "indices": 11,
          "material": 0,
          "mode": 4,
          "targets": [
            {
              "NORMAL": 4,
              "POSITION": 3
            },
            {
              "NORMAL": 6,
              "POSITION": 5
            },
            {
              "NORMAL": 8,
              "POSITION": 7
            },
            {
              "NORMAL": 10,
              "POSITION": 9
            }
          ]
        }
      ],
      "weights": [
        0.0,
        0.0,
        0.0,
        0.0
      ]
    },
    {
      "name": "mesh_1",
      "primitives": [
        {
          "attributes": {
            "NORMAL": 13,
            "POSITION": 12,
            "TEXCOORD_0": 14
          },
          "indices": 23,
          "material": 0,
          "mode": 4,
          "targets": [
            {
              "NORMAL": 16,
              "POSITION": 15
            },
            {
              "NORMAL": 18,
              "POSITION": 17
            },
            {
              "NORMAL": 20,
              "POSITION": 19
            },
            {
              "NORMAL": 22,
              "POSITION": 21
            }
          ]
        }
      ],
      "weights": [
        0.0,
        0.0,
        0.0,
        0.0
      ]
    }
  ],
  "nodes": [
    {
      "children": [
        1
      ],
      "matrix": [
        1.0,
        0.0,
        0.0,
        0.0,
        0.0,
        2.220446049250313e-16,
        -1.0,
        0.0,
        0.0,
        1.0,
        2.220446049250313e-16,
        0.0,
        0.0,
        0.0,
        0.0,
        1.0
      ],
      "name": "Sketchfab_model"
    },
    {
      "children": [
        2
      ],
      "name": "root"
    },
    {
      "children": [
        3,
        5
      ],
      "matrix": [
        1.0,
        0.0,
        0.0,
        0.0,
        0.0,
        2.220446049250313e-16,
        1.0,
        0.0,
        0.0,
        -1.0,
        2.220446049250313e-16,
        0.0,
        0.0,
        0.0,
        0.0,
        1.0
      ],
      "name": "GLTF_SceneRootNode"
    },
    {
      "children": [
        4
      ],
      "name": "Sphere_0"
    },
    {
      "mesh": 0,
      "name": "mesh_0"
    },
    {
      "children": [
        6
      ],
      "name": "Sphere.001_1"
    },
    {
      "mesh": 1,
      "name": "mesh_1"
    }
  ],
  "scene": 0,
  "scenes": [
    {
      "name": "Sketchfab_Scene",
      "nodes": [
        0
      ]
    }
  ]
}
