<svg width="320" height="60" viewBox="0 0 320 60" fill="none" xmlns="http://www.w3.org/2000/svg">
<path d="M319.957 17.8683L319.832 17.442L319.627 17.0481L319.351 16.7004L319.014 16.4119L318.627 16.1918L318.206 16.0497L317.766 15.9913L272.236 14.2759L226.705 15.9913L226.265 16.0497L225.845 16.1918L225.459 16.4119L225.121 16.7004L224.846 17.0481L224.641 17.442L224.515 17.8683L224.473 18.3105V55.3675L224.515 55.8097L224.641 56.236L224.846 56.6299L225.121 56.9776L225.459 57.2668L225.845 57.4861L226.265 57.6275L226.705 57.6867L272.236 59.4021L317.766 57.6867L318.206 57.6275L318.627 57.4861L319.014 57.2668L319.351 56.9776L319.627 56.6299L319.832 56.236L319.957 55.8097L320 55.3675V18.3105L319.957 17.8683Z" fill="#3AAA35"/>
<path d="M35.7825 16.3484C36.6806 16.3484 36.9079 16.572 36.6806 17.5466L28.2846 48.9653C27.9095 50.3871 27.6858 51.361 27.4586 51.9633C27.1592 53.085 26.4847 55.185 25.8853 55.7123C25.3587 56.2353 24.5356 57.2856 23.2588 57.3614C22.0606 57.585 20.6359 57.7365 18.3123 57.7365C14.6391 57.7365 13.1386 57.3614 11.7132 56.311C11.4138 56.0117 11.0387 55.4851 10.6636 54.662C9.84122 52.9372 9.68973 52.0391 8.7909 48.9653L0.01611 17.5466C-0.0560274 16.5727 0.0918542 16.3484 0.917827 16.3484H6.46663C7.06537 16.3484 7.14112 16.572 7.44049 17.5466L15.5372 47.3126C16.511 50.838 16.8111 51.2888 18.3116 51.2888C20.3358 51.2888 20.6351 50.838 21.5368 47.3126L29.3334 17.5466C29.5571 16.5727 29.7086 16.3484 30.3073 16.3484H35.7825Z" fill="#222222"/>
<path d="M47.631 8.77479C44.7087 8.77479 43.2075 7.27361 43.2075 4.35132C43.2075 1.42543 44.7087 0 47.631 0C50.5569 0 52.058 1.42543 52.058 4.35132C52.058 7.27433 50.5569 8.77479 47.631 8.77479Z" fill="#3AAA35"/>
<path d="M50.106 16.3484C50.8562 16.3484 51.232 16.7235 51.232 17.4708V56.2353C51.232 56.9855 50.8569 57.3606 50.106 57.3606H45.1595C44.4093 57.3606 44.0342 56.9855 44.0342 56.2353V17.4708C44.0342 16.7242 44.4093 16.3484 45.1595 16.3484H50.106Z" fill="#222222"/>
<path d="M66.2588 0.675293C67.009 0.675293 67.3849 1.05041 67.3849 1.8771V30.8922L79.6807 17.0952C80.0558 16.5722 80.5788 16.3486 81.254 16.3486H87.478C88.7556 16.3486 88.9792 16.9473 88.1525 17.7704L74.8821 32.4691L92.5038 55.3366C93.3262 56.2347 93.1026 57.3608 91.2263 57.3608H85.9804C85.306 57.3608 84.7786 57.0614 84.3278 56.5348L67.3849 34.1939V56.1597C67.3849 56.9857 67.0098 57.3615 66.2588 57.3615H61.3124C60.5621 57.3615 60.187 56.9864 60.187 56.1597V1.8771C60.187 1.05113 60.5621 0.675293 61.3124 0.675293H66.2588Z" fill="#222222"/>
<path d="M104.825 0.675293C105.575 0.675293 105.951 1.05041 105.951 1.8771V30.8922L118.246 17.0952C118.621 16.5722 119.144 16.3486 119.82 16.3486H126.044C127.321 16.3486 127.545 16.9473 126.718 17.7704L113.448 32.4691L131.07 55.3366C131.892 56.2347 131.668 57.3608 129.792 57.3608H124.546C123.872 57.3608 123.344 57.0614 122.893 56.5348L105.951 34.1939V56.1597C105.951 56.9857 105.575 57.3615 104.825 57.3615H99.8788C99.1285 57.3615 98.7534 56.9864 98.7534 56.1597V1.8771C98.7534 1.05113 99.1285 0.675293 99.8788 0.675293H104.825Z" fill="#222222"/>
<path d="M151.777 15.9734C155.526 15.9734 158.448 16.2728 160.624 16.8715C165.047 17.9968 167.67 21.4464 168.496 26.5444C168.947 29.0194 169.17 32.469 169.17 36.8925C169.17 41.316 168.947 44.7648 168.496 47.3127C167.67 52.3385 164.895 55.7124 160.624 56.9099C158.448 57.4365 155.526 57.7359 151.777 57.7359C148.028 57.7359 145.026 57.4365 142.854 56.9099C138.578 55.7117 135.88 52.3385 134.982 47.3127C134.531 44.7656 134.307 41.316 134.307 36.8925C134.307 32.469 134.531 29.0201 134.982 26.5444C135.88 21.4464 138.503 17.9968 142.926 16.8715C145.102 16.2728 148.028 15.9734 151.777 15.9734ZM143.301 25.0439C142.103 26.9202 141.504 30.8171 141.504 36.8925C141.504 42.8893 142.103 46.789 143.301 48.6617C144.503 50.538 147.353 51.4361 151.777 51.4361C156.2 51.4361 158.975 50.538 160.173 48.6617C161.375 46.789 161.973 42.8885 161.973 36.8925C161.973 30.8164 161.375 26.9202 160.173 25.0439C158.975 23.1713 156.2 22.2695 151.777 22.2695C147.353 22.2688 144.503 23.1713 143.301 25.0439Z" fill="#222222"/>
<path d="M201.974 16.4964C203.923 16.7957 205.648 17.546 207.148 18.8199C210.146 21.2192 210.897 25.419 210.897 33.5186V56.2346C210.897 56.9849 210.446 57.36 209.62 57.36H204.821C204.074 57.36 203.699 56.9849 203.699 56.2346V34.1174C203.699 29.5424 203.172 26.768 202.497 25.0432C202.122 24.1451 201.523 23.5456 200.624 23.1705C198.823 22.3445 197.622 22.2688 194.249 22.2688H183.976V56.2346C183.976 56.9849 183.601 57.36 182.85 57.36H177.904C177.153 57.36 176.778 56.9849 176.778 56.2346V18.3719C176.778 17.3981 177.153 17.3223 177.904 17.1701C182.028 16.3478 187.274 15.9719 193.498 15.9719C197.176 15.9734 200.022 16.1213 201.974 16.4964Z" fill="#222222"/>
<path d="M253.326 22.8029C255.138 23.8503 256.064 25.9445 256.064 29.1264V30.4552C256.064 34.0397 254.815 36.1742 252.359 36.8184C254.816 37.503 256.064 39.6376 256.064 43.142V44.3503C256.064 47.5719 255.178 49.7469 253.365 50.8347C251.553 51.9225 248.331 52.4455 243.659 52.4455C241.202 52.4455 238.906 52.2839 236.853 52.0026C236.33 51.8821 236.088 51.6802 236.088 51.3981V48.3373C236.088 48.0553 236.289 47.9348 236.692 47.9348H243.498C246.518 47.9348 248.532 47.6527 249.459 47.0886C250.385 46.5245 250.868 45.3566 250.868 43.6253V43.3836C250.868 41.692 250.546 40.5241 249.861 39.8799C249.217 39.2357 247.888 38.9133 245.834 38.9133H238.342C237.98 38.9133 237.818 38.7517 237.818 38.43V35.2487C237.818 34.8859 237.98 34.725 238.342 34.725H245.793C247.847 34.725 249.216 34.4026 249.861 33.7584C250.546 33.1142 250.868 31.9463 250.868 30.2143V29.7309C250.868 28.0393 250.384 26.9522 249.378 26.4689C248.411 25.9856 246.357 25.7439 243.256 25.7439H236.692C236.289 25.7439 236.088 25.583 236.088 25.301V22.3203C236.088 21.9978 236.33 21.7973 236.853 21.6761C238.665 21.394 240.921 21.2332 243.659 21.2332C248.291 21.2317 251.514 21.7554 253.326 22.8029Z" fill="white"/>
<path d="M273.746 21.4341C274.27 21.4341 274.391 21.6757 274.149 22.159L268.309 33.8792C269.236 33.6375 270.363 33.5171 271.612 33.5171C278.7 33.5171 282.043 36.0542 282.043 41.9745V43.8277C282.043 50.0704 278.499 52.4466 271.088 52.4466C263.557 52.4466 259.972 50.1108 259.972 43.8277V41.9745C259.972 40.1624 260.254 38.672 260.818 37.4233L268.712 21.8366C268.873 21.5545 269.114 21.4341 269.437 21.4341H273.746ZM265.127 42.8199V42.9815C265.127 46.566 266.698 47.9352 271.088 47.9352C275.398 47.9352 276.847 46.566 276.847 42.9815V42.8199C276.847 39.2354 275.398 37.8662 271.088 37.8662C266.698 37.8662 265.127 39.2354 265.127 42.8199Z" fill="white"/>
<path d="M304.921 23.2462C307.66 25.5821 308.305 29.5698 308.385 36.8997C308.385 41.8937 307.982 45.0353 307.015 47.5724C305.444 51.2377 302.505 52.3652 296.866 52.4453C292.275 52.4453 289.214 51.3978 287.683 49.2633C286.153 47.1287 285.387 42.9809 285.387 36.899C285.387 30.6165 285.911 27.1121 287.643 24.575C289.415 22.0379 292.154 21.2322 296.866 21.2322C300.693 21.2322 303.15 21.8367 304.921 23.2462ZM291.792 45.6795C292.637 47.1699 294.329 47.9353 296.866 47.9353C299.403 47.9353 301.095 47.1699 301.941 45.6795C302.786 44.1495 303.23 41.2092 303.23 36.8997C303.23 32.5498 302.786 29.6102 301.941 28.0794C301.095 26.5083 299.403 25.7436 296.866 25.7436C294.329 25.7436 292.637 26.509 291.792 28.0794C290.945 29.6095 290.543 32.5498 290.543 36.8997C290.543 41.2092 290.945 44.1495 291.792 45.6795Z" fill="white"/>
</svg>
