<?xml version="1.0" encoding="UTF-8"?>
<!DOCTYPE svg PUBLIC "-//W3C//DTD SVG 1.1//EN" "http://www.w3.org/Graphics/SVG/1.1/DTD/svg11.dtd">
<!-- Creator: CorelDRAW 2019 -->
<svg xmlns="http://www.w3.org/2000/svg" xml:space="preserve" width="100%" height="100%" version="1.1" shape-rendering="geometricPrecision" text-rendering="geometricPrecision" image-rendering="optimizeQuality" fill-rule="evenodd" clip-rule="evenodd"
viewBox="0 0 133571 70714"
 xmlns:xlink="http://www.w3.org/1999/xlink"
 xmlns:xodm="http://www.corel.com/coreldraw/odm/2003">
 <g id="Capa_x0020_1">
  <metadata id="CorelCorpID_0Corel-Layer"/>
  <path fill="#373435" stroke="#373435" stroke-width="200" stroke-miterlimit="22.9256" d="M91513 66684c-561,-134 -1455,-131 -1969,-5l4 1952 1953 -48 13 -1899zm12866 22c422,790 1645,228 1245,-669 -342,-767 -1718,-216 -1245,669zm-79071 -4276c173,-1030 -1283,-1134 -1392,-248 -116,945 1252,1079 1392,248zm67523 1964c272,-1049 -1149,-1243 -1343,-431 -245,1024 1148,1183 1343,431zm-42013 -15741c-531,-123 -1415,-125 -1952,-1l1 1893 1957 -4 -7 -1888zm40949 -6814c950,-145 -947,145 0,0zm-89565 -4043l-1931 44 -1 1930 1966 -18 -34 -1955zm103225 -14868c0,-489 -957,-1442 -1468,-1441l-15125 -6c-561,1 -517,-24 -811,275 -239,244 -855,699 -855,1172l1 15472c0,322 476,674 690,892 413,422 281,451 1071,451l14318 0c1396,-1 1053,-48 1815,-772 858,-815 365,-13958 364,-16043zm-100397 10501c-891,-404 -1332,969 -531,1278 409,157 809,-30 940,-387 190,-516 -91,-746 -409,-891zm123132 -935c-918,-315 -1285,1031 -483,1315 912,324 1384,-1005 483,-1315zm1966 -5073c-885,-520 -1477,878 -673,1234 883,391 1432,-788 673,-1234zm-44728 -4103c444,19 -1217,-54 0,0zm17028 -2615c-23,-270 -39,8 -40,8 -41,23 51,124 40,-8zm-68164 -6800c-895,-394 -1343,939 -609,1259 944,412 1445,-891 609,-1259zm32857 -1126c-916,-431 -1366,892 -593,1252 817,381 1485,-832 593,-1252zm23743 -8439c-885,-526 -1435,798 -710,1188 815,439 1566,-679 710,-1188zm19914 -2762c-879,-359 -1238,1071 -465,1308 892,274 1423,-916 465,-1308zm-10480 -1077c-866,-353 -1309,1045 -472,1316 883,286 1422,-929 472,-1316zm811 285c101,1230 -297,1009 -895,1511 -18,826 120,7009 -102,7367l-3016 3025c-911,910 -684,654 -683,2326 1,2100 190,3845 207,5809l864 20c2,-805 148,-6281 297,-6498l5023 -5022c1012,-1008 957,-526 957,-2402 0,-2223 -3,-2848 -1,-5071 -152,-434 -722,-295 -247,-1147 342,-114 573,-44 850,63 123,90 243,162 227,322 17,674 -190,629 -394,586 -94,-20 -96,294 -189,712 0,978 0,1956 0,2934 0,3932 400,2614 -1350,4514 -1250,1126 -2501,2494 -3720,3714 -1146,1147 -1023,582 -1028,2709 -6,2163 72,2689 241,4549l854 41c23,-1346 72,-2552 172,-3790 222,-2735 -936,-1099 2834,-4883 1359,-1365 1157,-1480 2217,-1480 5041,-2 3373,555 5869,-1818 514,-489 356,-604 355,-1511l2 -4004c-432,-348 -954,-376 -941,-1151 10,-626 445,-960 1028,-1045 602,7 1078,408 1088,1040 15,1022 -841,822 -930,1245l0 5071c-119,329 -499,585 -714,831 -1899,1653 -585,1589 -4068,1589 -3122,-1 -2066,-306 -5351,2989 -476,478 -1137,826 -1144,1608 -15,1748 126,3594 270,5269l830 37 28 -1128 556 -95 27 477 43 709 858 40c7,-736 13,-1386 52,-2099 251,-4518 -274,-3328 1295,-4935 623,-638 468,-480 1645,-479l6225 1c359,-148 264,-425 706,-418 738,12 680,1157 -67,1082 -439,-44 -263,-259 -639,-417l-6136 0c-1104,-2 -1010,-163 -1605,449 -1016,1045 -1243,821 -1062,3025 39,469 52,1476 124,1920 83,513 125,1190 139,1841l893 -25c-13,-61 1,-328 1,-353 0,-44 -36,-305 -52,-492l496 3c147,159 92,-245 114,139l78 708 641 117c35,134 -38,-2 56,147 38,61 81,79 122,114 332,377 1197,926 1158,1500 602,4 1416,293 1902,-35 347,-234 585,-675 1063,-986 437,-284 1849,-1659 2014,-2046 237,-52 361,-247 596,-492 30,-31 109,-117 126,-134 21,-21 116,-106 142,-131 119,-114 158,-159 269,-270 367,-365 692,-670 1056,-1100l9694 -1c372,-122 604,-875 1223,-75 109,293 -220,1327 -1134,322l-9731 15c-466,663 -2725,2670 -3451,3481 -192,214 -95,76 -129,245 -331,154 -264,113 -465,481 -148,271 -138,228 -395,471l-923 959 -1838 -29 -24 858 3306 154c416,207 1071,105 1559,109 807,7 738,-82 1137,-492 527,-543 1022,-1019 1557,-1555 342,-343 347,-548 1031,-550l4632 6c258,-109 367,-306 500,-477 0,0 1108,147 649,897 -420,686 -1009,-118 -1060,-173l-5069 9c-704,480 -2171,2386 -2757,2579 -504,-2 -1009,-1 -1514,-2l-2681 156c-359,17 -786,-29 -1276,59l66 809 1438 98 -88 565 -1406 -11 6 827c651,67 1313,78 1907,152 283,36 677,2 973,5 479,6 438,108 883,125 1132,44 2826,57 3926,-37l2125 -2092 6047 0c370,103 2265,2130 2655,2530l3926 -17c273,-465 405,-953 1144,-923 1353,56 1338,2155 -76,2119 -919,-24 -735,-651 -1157,-932l-3911 1c-219,-83 -2330,-2476 -2670,-2532l-5781 0c-263,81 -1993,1833 -2202,2115 -1347,42 -2792,-65 -4114,7 -353,19 -522,97 -976,95 -312,-1 -640,-27 -942,32 -698,135 -1053,23 -1760,43l-27 844c811,23 1602,145 2373,140 2119,-13 4725,-23 6791,93 0,0 2278,2442 2278,2442 1927,0 5458,-81 7385,-83 216,-80 249,-208 432,-398 396,-36 655,10 762,300 137,372 -87,547 -183,715 -789,115 -538,-185 -965,-348 -262,-100 -6852,65 -7570,58 0,0 -2226,-2335 -2226,-2335 0,0 -6935,-75 -7363,74 -716,-16 -136,-12 -1668,8l5 877 7222 193c645,2 632,125 953,459 487,505 930,928 1423,1422 884,886 582,666 2241,666 2723,0 6148,82 8716,-8 129,-173 138,-296 274,-487 130,-182 197,-204 336,-404 587,2 966,-103 1324,326 650,778 -90,2049 -1163,1692 -490,-163 -478,-478 -771,-884l-10316 -1c-428,-193 -1413,-1363 -1823,-1724 -642,-644 -458,-817 -1644,-806 -799,8 -1603,5 -2402,1 -1459,-7 -2952,202 -4397,237l-16 840 798 53 104 579 -844 37 -58 860c1076,47 1875,46 2904,59 416,5 398,109 1420,107 2473,-4 1216,-96 1895,-343 800,-292 985,828 428,1040l-464 -10 -314 -442c-545,3 -1090,3 -1634,2 -1043,-4 -2807,106 -2847,241 -657,22 -850,86 -1359,81l-9 804c456,1 1026,-67 1458,-32l2578 194c1564,-8 11770,-154 12119,122l2733 2735 7115 2c318,-135 54,39 285,-205 7,-8 146,-178 148,-180 651,-69 877,111 777,767 -318,658 -1034,21 -1036,20 -132,-145 63,-177 -793,-162 -298,6 -594,4 -892,4l-5164 6c-785,2 -763,-209 -1174,-626 -301,-305 -544,-538 -847,-843 -984,-990 -1114,-1406 -1971,-1401 -1781,12 -12826,-113 -13639,179l-342 3 -471 18 -396 3 -492 36 43 913 1365 -44 -76 610 -1330 98 6 800c419,1 1170,-68 1536,-19 1385,185 2813,139 4216,167l6107 6077 7026 2c182,26 5026,2282 5304,2680 282,-39 549,-123 766,48 745,588 -584,1528 -859,602 -125,-418 87,-375 -262,-728 -748,-758 -4758,-2317 -5039,-2357l-7049 15 -6113 -6060c-741,-139 -4463,-186 -4822,172 0,0 -552,95 -805,245 -157,271 66,-59 -86,168 -68,102 -161,179 -254,271 -844,830 -923,1156 -1667,1257 -24,973 -150,1799 -143,2754 2,289 17,391 -53,646 -142,515 -63,-1161 -63,-608 0,1280 -2,2550 -4,3820l2 4183c0,1587 -152,1204 688,2047l21400 191c205,-81 254,-216 443,-400 874,-70 988,544 521,1018 -524,94 -617,-89 -875,-368l-21644 -114c-839,-846 -778,-711 -778,-2107l0 -4179c13,-2606 -166,-2896 -203,-5547 -2,-457 39,-907 21,-1365l-885 6c114,877 -114,1801 -121,2062 -9,347 25,735 5,1075 -23,398 -111,463 -108,974 4,742 -3,-1056 -1,-314 9,2785 -5,1337 3,4123 2,722 -3,1445 2,2167 861,474 267,1131 -170,1100 -287,-20 -491,-230 -504,-515 -16,-347 202,-438 407,-618 2,-3 21,-223 21,-1100 -63,-1826 7,-3484 -2,-5247 -4,-712 -4,1116 0,404 3,-507 -85,-578 -106,-974l-66 -3084c-345,-78 -1943,-28 -2330,-46l-81 1596c-132,591 -180,2160 -179,2954l4 10085c0,-85 5517,3942 5590,3995 32,2050 -48,4202 109,6224 474,266 954,400 920,1146 -26,558 -472,987 -1035,1001 -1158,28 -1662,-1692 -159,-2118 -7,-1879 73,-4406 -16,-6144 1,26 -5682,-4025 -5682,-4025l23 -9948c3,-2588 -117,-2264 -191,-4779l-782 -11 -102 396c-407,4806 -214,7069 -189,11862l50 3568c0,0 3523,3577 3523,3577 16,961 194,4345 24,4755l-3713 359 -43 4547c246,188 436,200 463,545 22,274 -171,537 -438,588 -306,59 -566,-129 -634,-380 -99,-365 137,-486 215,-670 272,-265 149,-586 148,-1328 -1,-504 0,-1008 0,-1512 63,-1313 58,-1702 144,-2067 0,0 3657,-304 3657,-304 0,0 -61,-4508 -61,-4508l-3511 -3578c15,-2779 -69,-5601 -69,-8394 0,-1912 6,-1284 -1,-3195l-257 -4229 -801 -23c-34,820 17,3009 -169,3674 -56,1965 -7,1672 -4,3685l-52 7756c-1,71 -1964,959 -2169,1165 0,0 -7,795 -7,1564 0,835 22,5015 22,5015 0,0 2173,2175 2173,2175l-42 2684c108,312 89,184 385,429l-27 556c-154,331 -958,403 -1038,-195 -71,-535 282,-408 431,-789l1 -2700 -2151 -2063 68 -6850c0,0 2015,-977 2159,-1103 0,-3319 -14,-4948 1,-8267 4,-959 -43,-1708 3,-2749l-16 -307c-213,-1179 -23,-1375 -158,-1930 -66,-272 -83,-254 -82,-563 1,-409 3,-697 -11,-1112 -338,-110 -500,-91 -860,-40 -5,621 -51,2842 -89,3196 -37,346 -62,154 -101,450 -7,3643 3,10978 3,10978l-2423 1377 -183 6520c281,469 960,254 923,1245 -54,1433 -2247,1278 -2113,-163 76,-820 876,-818 946,-1082l142 -6678 2392 -1431c19,-5818 185,-8665 -167,-14429l-850 9 -71 2849c1,488 -82,532 -112,888 -304,3620 -18,5874 -23,9636 -213,188 -2597,2636 -2626,2740 0,0 -81,7758 -77,9897l1012 28 -18 2267 -2257 -11 11 -2257 1001 -52c21,-607 9,1970 9,1361 3,-5943 58,-5391 -8,-11322l2713 -2734c0,-3864 -1,-5160 20,-9021l-264 -4293 -846 -1c-11,575 -125,1147 -143,1798l-136 4845 -1248 1221 -8 733 535 11 -1 1289 -1343 -13 -20 -1259c0,0 467,-40 467,-40l-7 -667c0,0 1196,-1207 1338,-1343 0,0 138,-3796 21,-4741l-65 -1360c-77,-534 54,-227 -176,-453l-535 -8c-140,105 -229,588 -329,1165 -58,332 24,2843 2,3230 0,0 -2603,2193 -2603,2193l14 9294c0,1990 3,582 -3,2576 23,1322 -16,983 -7,1453 -432,322 -498,549 -790,840l-1779 1772c-387,166 1348,-1408 1282,-1288l257 356 -328 273 -355 -270 -888 881c108,292 126,170 244,429l-231 280c-313,-116 -160,-131 -456,-263l-744 799c182,295 163,107 211,441l-261 195c-220,-113 -170,-107 -356,-254 -182,138 -389,312 -480,526 -259,139 -1089,925 -1265,1227 94,1450 -1703,703 -806,-256l681 -15 1647 -1698 -294 -430 250 -259c289,122 141,133 472,306l796 -772 -351 -442 343 -293 341 301c376,-180 677,-589 980,-899l-339 -442 345 -276 349 291c318,-171 -644,760 -242,305 1063,-989 1379,-1385 1399,-1481 14,-66 128,-2275 133,-3566 7,-1430 -3,473 -3,-969l0 -6758c0,-745 -25,-1951 -25,-1951 0,0 2563,-2218 2563,-2218 -2,-960 -116,-2001 -236,-4284l-902 -18c-1,199 66,668 -18,1191 -200,1255 -259,2869 -257,2871 0,0 -3025,782 -3025,782 0,0 -42,9240 -51,9279l-13332 1938 -2 2956 712 33 -12 3401 -1656 -3 6 -3411 703 -31 21 -3071c4220,-626 13439,-1936 13439,-1936 0,0 -86,-9209 21,-9311 0,0 3028,-729 3028,-729l-200 -4002c-658,0 -839,-416 -1183,-761 -912,-914 -417,-429 -878,-1070 -2082,-273 468,-183 -2668,-150 -911,10 -807,-116 -1330,-130 -480,-13 -2494,-56 -2838,18 -366,79 -2477,2344 -2910,2780 -845,851 -578,642 -2171,637 -773,-2 -5262,-113 -5628,92l-7123 7115c-876,876 -461,745 -2101,745 -2565,1 -6210,-96 -8537,14l25 993 -2217 6c-144,-713 -56,-1533 -52,-2271l2267 -2 7 973c961,172 6935,29 8775,39 691,4 869,123 1261,-271l6575 -6586c1138,-1146 869,-1108 1856,-1097 977,11 1958,2 2936,2 4076,0 3009,384 4625,-1227 2805,-2797 1515,-2176 5163,-2199 647,-4 558,-172 1235,-169 969,4 1989,21 2960,3l-65 -841c-1911,-90 -5319,-249 -7201,-187 0,0 484,-642 -1350,1200 -436,438 -810,812 -1245,1245 -720,717 -806,1017 -1446,1025 -827,10 -1668,-5 -2497,-5 -8195,0 -16649,70 -24813,-1 -1053,-9 -746,-85 -1667,841l-9273 9271c-791,797 -1742,1634 -2445,2467 141,317 297,346 498,648l-566 496c-240,-215 -285,-370 -632,-472l-245 226c159,412 332,330 506,693l-542 490 -604 -508 -256 202c84,395 294,368 503,704l-534 529 -618 -541 -6305 6335c120,707 129,1126 -394,1458 -1136,721 -2266,-941 -1204,-1738 603,-453 915,-125 1447,50l6274 -6335 -687 -726c122,-260 279,-412 544,-547l777 697 274 -336 -702 -681c120,-290 267,-427 532,-581 243,167 254,223 427,399 283,288 318,323 643,76 -49,-334 -62,-263 -311,-499 -177,-168 -242,-205 -373,-408l494 -509c348,161 505,478 836,719l3574 -3576 1910 -1916c1637,-1601 6892,-7056 7252,-7153l28088 -15c473,-11 403,-12 664,-272l3156 -3200c273,-257 446,-89 728,-158 2303,22 4520,-25 6821,-91l16 -838c-770,-61 -3360,-55 -3537,-102 -140,-37 -6084,-127 -6176,-86l-2916 2915c-612,676 -599,661 -772,662l-13760 7c-294,-3 -260,-14 -382,-147l-2602 -2624c-281,-290 -290,-445 -804,-475 -759,-45 -1717,6 -2498,6l-18414 -7c-634,1 -580,31 -903,380 -788,852 -1624,1610 -2441,2459 -533,554 -780,376 -2076,377l-3650 -5c-573,9 -565,142 -1149,149 -936,11 -1385,-147 -2316,-144 -6525,18 -13051,-17 -19576,2l-1 1018 -2284 -19 34 -2262 2236 -2 34 1016c6637,59 13297,-48 19914,3 899,7 1604,-305 2624,-49 375,94 4304,44 4934,48 1028,7 867,-27 1393,-556 181,-182 305,-311 490,-489 250,-241 356,-291 403,-512 1100,-501 1008,-1674 2423,-1658 6443,77 13261,1 19746,4 692,0 1334,-142 1723,251l2946 2927c87,39 12903,292 13987,145 97,-13 994,-1107 2895,-3009 520,-520 365,-645 1307,-660 1250,-20 2339,3 3555,0 569,-2 1389,82 1911,-38 1116,-257 2452,-137 3706,-183l-18 -838c-706,-98 -1176,-7 -1553,-55 -283,-36 -32,-36 -408,-82 -328,-40 -726,0 -1062,-7 -520,-11 -466,-93 -888,-133l-8276 -9c-900,44 -1607,1631 -2256,1827 -517,156 -7111,26 -8230,26 -1396,0 -2791,0 -4187,6 -780,3 -859,-342 -1263,-746l-5182 -5138c-309,-133 -12173,-58 -14448,-58 -789,0 -1361,-149 -1784,277 -663,668 -3858,3700 -4105,4216 -20,4 -47,10 -60,12l-26690 44c-381,226 -264,938 -1243,889 -549,-27 -994,-477 -987,-1066 16,-1200 1817,-1566 2120,-68 7757,-79 15559,-1 23321,-1 932,0 2033,55 2942,5 527,-29 635,-310 927,-602 1218,-1220 2376,-2283 3601,-3603 405,-437 381,-359 1156,-352l14498 1c700,-6 760,-106 1136,282l5110 5117c292,296 359,520 863,545 1823,89 3931,-6 5786,-6 1956,0 3916,-13 5871,1 725,5 760,96 1172,-324 1288,-1313 998,-1525 2740,-1524l7299 5c414,-5 315,-20 588,-101 753,-223 2564,12 3453,-75 74,-334 93,-515 -5,-852 -1269,-76 -2027,-75 -3399,-151 -1001,-204 -2256,-106 -3312,-106l-8271 0c-1792,0 -3540,5 -5336,0 -440,42 -2539,0 -2579,11 -1143,688 -104,926 -2223,924 -582,14 -2801,93 -2891,-239 -323,-327 -2016,-2205 -2378,-2303 -309,-84 -787,117 -820,-514 -21,-413 405,-743 821,-499 504,295 51,576 374,958 414,490 1084,1075 1563,1555 964,966 545,788 2353,788 1618,1 1917,242 2631,-510 123,-130 259,-301 433,-369 932,-145 2251,-55 3517,-49 5027,23 10152,-39 15210,2 706,6 749,-149 1326,-155 1016,-10 1984,25 3021,-11l24 -840c-721,-29 -1490,-68 -2237,-71 -1427,-7 -1399,-152 -2313,-146 -6354,51 -12683,5 -19032,1 -1341,-1 -1254,216 -1983,-520 -405,-408 -2113,-2255 -2454,-2435 -81,-43 -7175,-96 -8197,-80 -2301,35 -4479,23 -6747,0l-11038 10c-614,4 -604,-5 -919,-333 -2626,-2726 -5338,-5339 -8002,-8005 -230,-230 -355,-462 -694,-557 -343,-97 -590,-38 -648,-483 -89,-680 1117,-1031 1055,81 -26,474 96,423 419,739 233,228 391,391 622,623 2457,2464 4965,4879 7377,7384 340,353 328,309 970,303 4878,-49 9810,35 14679,1 1177,-8 2277,-6 3465,-5 1167,1 2408,10 3555,4l3745 -10c503,16 526,174 781,436l1822 1824c1044,1037 749,787 2995,785 6342,-4 12683,-15 19025,-27 1227,-238 2311,-119 3750,-210l-61 -857c-1401,-44 -2352,176 -3707,-80 -2399,-268 -15678,166 -19178,-31 -468,-125 -2567,-2392 -3064,-2897 -699,-711 -517,-332 -1215,-725 -81,-290 -82,-456 3,-740 789,-394 1102,-75 904,802l3362 3314c2267,78 4812,31 7113,14l10318 -2c845,0 1355,5 2143,-120 228,-36 471,-20 703,-18 911,9 760,-93 1323,-128 434,-27 867,-44 1339,-73l6 -847c-1248,7 -2025,10 -3469,-16 -372,-154 -8534,-102 -9693,-102l-3117 2c-1275,122 -1662,11 -2838,-5 -2205,-30 -1541,280 -2724,-889 -837,-827 -1614,-1610 -2448,-2443 -722,-721 -601,-516 -1947,-517l-4891 0c-6420,-9 -12868,6 -19298,0 -1367,1 -1061,87 -1775,-652l-7336 -7338c-839,-836 -1617,-1604 -2446,-2444 -339,-344 -229,-383 -785,-490 -1491,-286 538,-2115 538,-355 0,355 -46,215 462,718 229,226 395,388 626,619 435,435 805,811 1245,1245l7336 7336c599,588 885,1077 1415,1119 692,55 1683,-4 2409,-4l13518 1c1183,6 2252,-17 3465,4 1258,23 6827,-170 7200,132 477,386 3448,3564 3707,3667 592,236 3211,-127 4490,40l7289 11c1096,3 2283,6 3373,-3 923,-8 1444,64 2260,-120l3454 -207 -66 -819 -665 -7 -610 22 -36 -569 1353 -96 8 -856c-863,-29 -2778,27 -3594,-162 -845,-196 -7965,-67 -9660,-66 -897,1 -1003,154 -1479,-340 -1275,-1322 -2556,-2579 -3862,-3876 -515,-512 -368,-642 -1327,-631 -4119,48 -10154,8 -13150,-14 -311,-75 -1683,-1580 -2006,-1902 -659,-656 -1260,-1252 -1912,-1912 -758,-767 -837,-1201 -1784,-1197l-12589 5c-391,1350 -2199,861 -2064,-383 60,-558 565,-999 1215,-918 778,97 691,640 984,1046 3827,127 7725,8 11561,8 584,0 1401,-132 1767,215 941,892 4342,4612 4835,4773 243,79 6558,37 7271,37 1304,0 2609,0 3913,0 652,0 1306,5 1958,-1 982,-10 816,5 1325,522 1284,1306 2543,2515 3824,3823 599,613 412,489 1520,485 1679,-6 8753,131 9586,-45 877,-185 2647,-107 3668,-156l-46 -840c-1033,-43 -2226,75 -3240,-29 -395,-41 -321,-146 -892,-150 -1452,-10 -2910,4 -4363,4 -788,0 -1310,208 -1851,-359l-3242 -3250c-936,-924 -972,-1350 -1928,-1342 -1390,11 -12605,-136 -12973,95 -315,198 -155,365 -791,209 -216,-227 -429,-739 44,-966 594,-286 578,278 998,419 551,90 10556,13 12540,1 1129,-7 888,10 1486,607l3112 3113c1351,1358 890,1227 2960,1227 1070,0 3738,187 4616,-68 349,-101 1101,-72 1520,-82 697,-17 1320,-93 1957,-112 431,-693 242,-461 873,-1095 182,-183 307,-313 484,-494 248,-254 233,-264 713,-269l191 -3368c130,-743 -96,-751 -510,-1159 -305,-301 -540,-541 -844,-845 -2282,-2277 -1256,-1924 -5086,-1924 -4684,0 -9368,-6 -14051,1 -403,193 -258,911 -1162,938 -1382,41 -1404,-2068 -81,-2115 778,-28 873,445 1154,910 1440,132 12647,21 14407,21 3588,0 2455,-498 5054,2113 886,890 1365,1045 1511,2137 140,1047 96,2212 86,3289l857 37c1,-421 17,-1141 58,-1551 56,-550 65,-931 94,-1527 69,-1415 408,-1179 -679,-2264 -1060,-1058 -2051,-2062 -3111,-3114 -723,-718 -991,-1316 -1909,-1308l-18768 4c-2018,0 -1371,-242 -3898,2342 -427,436 -1081,1218 -1553,1559 -437,316 -5198,134 -6140,123 -418,694 -1143,562 -1121,-95 10,-310 223,-519 531,-527 462,-12 290,306 708,377 1038,0 2075,0 3113,0 3191,0 2350,311 4415,-1751 2440,-2435 1713,-2276 3855,-2276l18409 0c1405,-2 1190,29 2091,929 1046,1045 2027,2022 3069,3067 481,482 1338,1046 1345,1775 7,714 231,2241 116,2854l-1 431 47 931 872 -48c-1,-1491 227,-3395 223,-4430 -7,-1853 230,-1534 -641,-2406l-5292 -5290c-271,-270 -482,-483 -756,-755 -344,-342 -547,-351 -560,-967 -22,-1001 23,-2025 4,-3031 -194,-231 -456,-270 -411,-697 76,-721 1269,-572 1049,228 -149,540 -334,9 -393,726 -53,631 12,1562 6,2233 -11,1143 114,969 704,1554 353,350 4045,4188 4522,4426 67,226 202,297 413,510 205,206 291,348 510,412 205,411 565,626 877,958 340,361 217,928 216,1565 -2,1561 125,3094 181,4268l-26 745 860 -12c111,-1149 109,-2520 253,-3672 65,-522 13,-1392 14,-1951 1,-851 183,-1325 -430,-1615 -114,-413 -817,-916 -1172,-1269 -251,-249 -1110,-1120 -1184,-1128 -21,-476 10,-950 -13,-1414 -66,-1340 -1,-2333 0,-3644 -222,-472 -913,-294 -879,-1242 51,-1410 2257,-1312 2108,167 -87,859 -712,657 -982,1076 -171,578 -79,4884 2,4963l2552 2462c319,326 252,347 245,931 -8,742 -5,1486 -6,2228 0,438 78,676 96,1060 16,347 -19,717 3,1065 24,374 121,532 94,947 -22,332 -47,607 -21,1032l852 -36 76 -1369 589 87 -14 1307 883 37c10,-994 85,-1966 111,-2980 13,-512 113,-436 108,-1419 -3,-504 -1,-1008 0,-1512 0,-1715 -228,-1390 691,-2299 3752,-3713 3104,-2371 3104,-5882 0,-1986 2,-2373 0,-4359 -64,-316 -278,-168 -610,-461 -459,-405 -574,-1552 605,-1814 712,-77 862,319 1154,675zm-53189 20080c-939,-410 -1360,896 -601,1256 848,403 1486,-870 601,-1256zm37360 4967l-288 5 36 569 -2183 -24c-165,-95 73,-24 -237,-90l-884 -24c-77,-5 -155,-10 -232,-15 -3537,-224 -7063,10 -10618,15 -2753,-1 -1660,487 -4786,-2646 -1726,-1730 -1548,-1954 -2951,-1948 -4424,18 -10048,-311 -14407,16 -282,438 -443,886 -1148,855 -544,-24 -997,-468 -1003,-1041 -11,-1199 1793,-1645 2125,-77 1698,4 3208,-19 4911,5 1383,19 9980,-105 10484,11 309,71 3346,3240 4007,3897 790,786 486,682 1968,681l7829 3c1567,14 3315,-20 4890,-73 296,-85 2206,-175 2487,-118zm32173 32426c210,-959 -1145,-1204 -1361,-401 -270,1001 1180,1230 1361,401zm-1764 -71l-10280 91 -4728 -3129c-88,-244 -10,-9925 -9,-11911l-428 -2806c0,0 893,-2 893,-2l-180 3515 44 11149c0,0 4037,2737 4464,2969l10252 -132c345,-1487 2215,-1022 2108,235 -83,984 -1620,1572 -2136,22zm3636 -49580c-908,-579 -1465,812 -714,1186 801,398 1523,-670 714,-1186zm-14535 6923c-764,361 -866,748 -810,1883 175,-97 87,732 87,1069 -1,506 111,1103 75,1597l-585 -52c-34,-12 103,-67 -7,-81l43 -843c42,-627 21,-2442 150,-2896 66,-230 1177,-1328 1413,-1507 445,-338 4864,-150 5827,-150 2684,1 1921,348 4061,-1791l2986 -2961c-169,-856 -96,-915 225,-1507 11,-2 1744,-614 1773,856 9,453 -263,818 -585,980 -517,259 -918,-26 -1255,-159l-4887 4828 -7938 4c-113,186 -139,205 -289,352l-282 380zm23458 25091c244,-1014 -1145,-1203 -1345,-424 -255,993 1154,1219 1345,424zm-314 -1232c256,235 569,261 670,788 101,532 -154,901 -422,1102 -293,219 -774,273 -1117,69 -408,-243 -392,-399 -584,-804l-7050 0c-281,-66 -3607,-3646 -3815,-3729 -1359,-28 -2739,-6 -4100,-6 -654,0 -1351,-55 -1978,68l-1975 130c5,-300 11,-347 76,-610l232 26c1767,193 3753,141 5602,141 2911,0 1830,-333 3867,1613 2395,2288 1501,2122 3514,2121 1838,-1 3676,5 5514,-1 593,-349 99,-1005 1566,-908zm-26834 -20333l3 565c0,0 -556,95 -556,95 -123,-713 156,-2320 154,-3101 -7,-1877 -187,-1432 823,-2434 572,-567 1080,-1077 1645,-1645 1006,-1011 497,-888 2388,-889 1097,0 2194,1 3291,0 2836,-3 1676,392 4365,-2230 887,-865 413,-465 493,-1045 166,-1204 1926,305 621,627 -679,168 -543,207 -979,642 -540,540 -1015,1016 -1557,1555 -943,940 -651,697 -2410,697l-4720 -7c-743,-1 -685,126 -1078,530 -533,547 -1020,1013 -1558,1554 -709,712 -1091,672 -1082,2019 4,519 58,2721 156,3066zm23756 4808l-9427 2 -2319 2327c-935,28 -4523,211 -5472,206 0,0 88,-565 88,-565 0,0 3022,119 5212,119 644,-422 1948,-2117 2490,-2334l9427 0c357,-138 2,-385 904,-415 241,228 491,641 142,943 -456,394 -746,-121 -1045,-282zm-54087 14142l-3403 3 -18 -1628 3429 -39 -8 1663zm-4882 2l-3407 3 -15 -1625 3425 -44 -3 1665zm29168 -18816l23 300 -576 143c-43,-238 23,-1922 67,-2187 77,-464 205,-4092 -29,-4490 -89,-152 -951,-957 -1153,-1159 -254,-255 -1020,-928 -1101,-1186 -295,-948 0,-5364 -31,-6714 -46,-121 -446,-218 -400,-703 66,-689 1165,-599 1067,156 -67,514 -281,198 -416,636 7,2007 -43,5995 -35,6269 5,145 -24,211 25,295 21,36 350,409 994,1054 2172,2176 1155,710 1390,5366l174 2220zm-59350 1822l-3019 25 -6 -1244 2996 -9 29 1229zm79122 12454c0,1 545,862 -211,1018 -645,133 -712,-415 -605,-889l-1323 -1351c-448,-194 -4919,206 -5573,204l-153 -582c250,-43 2275,24 2563,72 618,105 1446,68 2167,66 1309,-2 1010,-114 1709,593 1015,1026 580,730 1425,869zm-2875 15626l-348 17 -178 -1 -276 0 13 -3020 786 19 3 2985zm-26857 -29354l-956 952c-365,-152 -769,-685 -1065,-961 121,-259 797,-931 1055,-1055 266,260 828,731 966,1065zm6158 48634l-1451 -33 -8 -1465 1458 -3 1 1501zm-9886 -50446c-364,-158 -761,-663 -1067,-987l1074 -1020c286,271 815,692 953,1046l-960 961zm-79385 21561l-1438 39 -33 -1479 1470 13 1 1427zm94612 -28392l-1464 11 -2 -1474 1409 1 56 1463zm13589 7806l-1463 -2 -4 -1433 1447 -31 20 1466zm-25141 23718l-1447 3 7 -1473 1457 40 -17 1429zm-34465 7660l-1464 18 -1 -1454 1440 -11 25 1446zm30587 -7668l-1441 10 -28 -1446 1462 -18 6 1454zm35278 9288c251,-1014 -1127,-1238 -1340,-431 -268,1015 1144,1221 1340,431zm-1663 178c-548,-1345 1542,-2054 1985,-755 463,1360 -1483,1988 -1985,755zm-2161 -7954l-2143 -21 -59 -783 2199 -4 4 808zm-15529 18029l-1320 15 0 -1320 1315 5 5 1301zm24664 -24568l-2155 0 10 -799 2143 1 2 799zm-93027 -9788l-2139 9 -13 -804 2151 1 1 794zm68357 30869l-1287 10 -31 -1322 1317 6 2 1306zm-68348 -32171l-2166 10 17 -802 2114 4 35 788zm83868 16330l-2124 -1 0 1731 2152 27 -28 -1757zm9103 -3942l-2093 0 25 -807 2109 -1 -41 808zm-9098 6528l-2133 -1 18 -802 2135 18 -19 785zm-78757 -13879l-2171 29 10 -771 2146 -19 14 762zm47570 9396l-1969 -22 -9 1910 1981 47 -3 -1936zm146 2139l-2262 -39 -13 -631 2 -1156 0 -483 382 0 1067 1 825 1 -1 2306zm-469 17602c-245,-126 -1380,-1215 -1500,-1538l331 -337c312,142 1326,1199 1554,1528l-385 348zm1589 -43691c-150,-327 -1003,-1149 -1322,-1374 -298,161 -1221,1074 -1357,1363 204,273 1104,1183 1374,1328l1305 -1317zm207 -11c-344,418 -1153,1219 -1556,1553 -314,-312 -1438,-1283 -1556,-1642 244,-243 1301,-1363 1582,-1506 302,274 1370,1277 1530,1595zm13950 -7567l-1975 -20 11 1960 1934 8 31 -1948zm146 2097l-2245 8 -31 -2274 2275 -6 0 2272zm-11698 29441l-1945 -36 -18 1938 1968 37 -5 -1939zm164 2074l-2277 8 0 -2257 2238 -17 39 2266zm-2399 15734l-360 325c-268,-139 -528,-469 -791,-737 -251,-255 -542,-494 -720,-753 170,-233 154,-218 390,-384 289,215 1383,1236 1481,1550zm27339 -41565l-1872 -1c-117,450 -96,1582 -16,1982l1925 -10 -36 -1971zm-2039 -82c513,-170 1607,-62 2209,-60l11 2269 -2310 -6 90 -2203zm-24008 40366c-248,-62 -1446,-1289 -1567,-1541l316 -269c296,-9 596,447 818,671 244,246 559,510 760,796l-327 344zm-7394 6217c75,229 30,105 243,335 197,214 161,85 240,373l-346 291c-162,-109 -1497,-1291 -1480,-1645 232,-121 126,-49 312,-225 429,242 586,652 1032,871zm1508 -1587c235,245 471,370 575,692l-346 297c-328,-192 -634,-610 -928,-879l-288 -181c-184,-385 -322,-223 -230,-621l362 -153 855 845zm-34535 -24494l429 -398 1492 1505 -453 395 -1468 -1501zm-6541 9482c-253,-197 -1373,-1281 -1449,-1515l401 -305 1489 1427c-118,170 -247,356 -440,393zm-3051 117l420 -395 1477 1507 -438 399 -1460 -1511zm44911 13318l-469 -473c86,-193 -17,-76 156,-243l223 -189 1482 1492c-118,238 -157,245 -371,423l-1020 -1011zm-36907 -21322l402 -382c246,237 486,480 747,726 275,259 525,557 753,770l-427 393 -1475 -1507zm41770 -20870c-301,182 -1212,1049 -1352,1398 260,319 991,1126 1362,1283l1321 -1280c-161,-338 -1025,-1117 -1331,-1401zm1566 1356l-1549 1566c-526,-268 -1270,-1372 -1604,-1436 132,-411 1395,-1584 1597,-1689l1556 1559zm-44931 21114l399 -386 1496 1497 -412 388 -1484 -1500zm-1703 4714l-1513 -1518 398 -383 1505 1506 -390 395zm68051 -27682l-1422 22 1 -740c420,-124 999,-90 1447,-33l-27 752zm-1381 1312l-34 -127 -2 -660 1426 -10 15 794 -1405 3zm-8407 41484c-578,-2 -1206,-62 -1761,61l0 1705 1708 0c114,-559 59,-1185 53,-1766zm-1900 1948l9 -2090 2082 14 -48 2019 -2043 57zm10299 -42913l1410 34 10 743 -1463 -21 43 -756zm-8397 37474l-1764 1 10 1762 1752 1 1 -1764zm122 1901l-2019 1 -2 -2047 2044 18 -22 2028zm10591 -50070c-113,609 -1229,587 -1059,-255 131,-648 1200,-510 1059,255zm286 -1156c-375,-640 625,-1116 934,-564 384,683 -569,1188 -934,564zm-31254 42881l-237 240c-1154,96 -1067,-1166 -23,-1024l283 215 -24 569zm-5 -2505c255,863 -1158,1033 -1013,-36 268,-508 759,-496 1013,36zm-21916 -30328c-372,197 -1259,90 -1752,65l-17 -430 1780 -13 -12 378zm56713 -11850l-468 -6 0 -1716 460 -38 8 1760zm-63647 12025l-1773 6 4 -441 1761 -8 8 444zm6939 787l-1767 -3 -1 -431 1764 -20 4 454zm56671 -10145l-426 -6 -5 -1714 463 -76 -33 1797zm-44748 41112c-286,-38 -356,-248 -353,-413 10,-580 918,-503 832,86 -29,200 -208,363 -479,326zm40825 -9260c-35,451 -445,358 -737,319 -73,-243 -91,-447 -5,-685 306,-114 780,-133 742,366zm-801 1960c-64,-793 655,-689 774,-333 171,516 -356,811 -774,333zm-375 -1486c308,257 327,261 195,705 -954,352 -1079,-751 -195,-705zm-26146 -20616c-484,-1 -476,-126 -572,-584 185,-112 444,-371 714,-135 369,324 41,576 -142,718zm-8694 24162c463,304 -11,976 -472,656 -397,-276 -34,-988 472,-656zm27014 16714c-325,-71 -209,-3 -423,-203 -284,-1290 1583,-252 423,203zm-62672 -21286c220,688 -294,943 -621,617 -332,-331 -60,-829 621,-617zm32172 9743c-334,-677 268,-910 562,-646 306,273 84,946 -562,646zm-29220 -10521l146 -343 345 -62c228,128 530,393 217,710 -267,270 -670,101 -707,-305zm31429 6798c-306,-606 142,-956 516,-687 328,236 248,876 -516,687zm-391 918c-12,9 -28,25 -33,30l-77 62c-218,142 -258,127 -570,58l-127 -357c56,-531 854,-668 807,207zm9084 -26678c-575,380 -964,-103 -674,-507 91,-127 328,-225 533,-102 222,133 196,384 141,609zm11 1079c-407,294 -929,120 -746,-398 139,-393 893,-417 746,398zm-42081 18242c-502,177 -658,-49 -635,-570l282 -168c262,-73 790,154 353,738zm30542 11015c-7,-11 -596,-421 -89,-758 406,-270 657,136 599,537 -196,179 -184,190 -510,221zm2668 -7410l244 171 -10 386c-113,70 -266,258 -532,166 -265,-92 -277,-319 -223,-653 138,-80 340,-259 521,-70zm-1543 -8c586,324 17,961 -391,686 -388,-261 -115,-965 391,-686zm1007 -451c-16,235 -87,282 -206,401l-383 13c-146,-162 -184,-139 -208,-414 67,-208 59,-583 441,-556 297,22 305,303 356,556zm-2486 3039c872,-137 766,621 403,748 -544,190 -650,-363 -403,-748zm13405 -24429c-397,258 -946,159 -751,-399 126,-360 883,-446 751,399zm-3323 -1565c468,-339 908,-51 744,407 -82,230 -378,265 -577,182 -242,-102 -231,-255 -167,-589zm-44323 20949c-245,-61 -448,-120 -365,-511 65,-303 293,-319 628,-223 200,189 192,177 140,540 -121,107 -176,182 -403,194zm48114 -19986c812,-133 792,545 462,719 -491,259 -750,-232 -462,-719zm27537 20709c-132,209 44,114 -237,378l-447 -26c-445,-718 499,-1195 684,-352zm-10730 -34073l-372 -51 -75 -377c94,-334 395,-560 695,-249 79,82 137,245 92,401 -70,243 -125,192 -340,276zm1002 54686c196,227 161,282 88,608 -222,102 -391,137 -596,49 -400,-473 -29,-889 508,-656zm-1806 -53735c-311,236 -394,225 -685,-11 -258,-960 992,-813 685,11zm-23603 56882c484,-158 776,-55 690,523l-156 176c-604,97 -706,-209 -534,-699zm-39001 -25094l-20 490c-170,69 -397,147 -690,40 -81,-219 -86,-406 -10,-629 441,-169 422,-128 720,99zm35370 7806c293,414 224,779 -430,754 -312,-367 -325,-447 10,-795l420 42zm27595 -39673c-26,-416 62,-586 443,-559 190,85 180,68 319,177 97,659 -372,852 -761,382zm-64124 31156c-80,120 -42,254 -348,249 -267,-5 -272,-157 -356,-338l12 -328c313,-176 362,-191 713,-51 44,166 142,381 -21,468zm2722 -385l29 457c-511,332 -412,85 -766,16l-22 -452c387,-327 435,-278 759,-22zm64055 24515c-114,324 -157,367 -585,320 -183,-202 -72,-58 -189,-320 -55,-643 829,-659 774,0zm-33177 -17805l-447 33c-351,-475 -243,-885 436,-771 232,315 231,411 11,737zm5125 314c-381,-308 -310,-759 263,-781 225,114 158,70 310,218l-4 375c-189,161 -254,247 -569,188zm23444 -37596c-905,123 -914,-806 -93,-753 324,316 342,341 93,753zm-20620 55966c164,383 195,447 -118,725 -834,95 -828,-937 118,-725zm-439 1494c799,-23 769,973 -166,759l-88 -507c147,-194 58,-105 254,-252zm-6603 -21130c-329,344 -474,287 -765,-21 -33,-820 859,-805 765,21zm-445 3554c606,-241 854,71 632,636 -223,76 -411,73 -626,-13 -86,-218 -88,-401 -6,-623zm-30822 -7634c-254,-300 -225,-436 -25,-732 447,-74 526,-14 662,327 -144,370 -71,501 -637,405zm31992 4983c-229,79 -426,79 -644,-6 -78,-226 -78,-411 11,-628 564,-231 836,65 634,634zm7112 19532c172,487 67,785 -523,689l-176 -159c-40,-322 24,-405 151,-607l548 77zm23358 -5549c-1,271 -54,333 -148,488l-519 0c-77,-154 -136,-260 -114,-441 75,-160 94,-379 430,-333 198,27 236,115 352,287zm-28886 -11850c0,0 -215,18 -123,-503l164 -174c990,-168 659,1092 -41,676zm28887 15769c-112,172 -146,263 -350,294 -357,54 -365,-170 -438,-343 -15,-192 46,-284 130,-431l495 0c100,150 157,208 163,479zm-64560 -24090c-307,98 -388,279 -744,-35 -81,-428 28,-710 492,-575 355,188 284,135 252,610zm34009 8131c-82,-323 -26,-329 173,-473 415,-94 321,-22 562,148 108,679 -449,858 -735,325zm31616 14932c-332,343 -426,333 -758,0 -100,-780 833,-825 758,0zm-61422 -22173c-121,369 53,244 -365,349 -546,-59 -472,-450 -251,-793l479 45c85,117 145,206 137,399zm56151 -33345l196 -442 471 12c96,338 303,329 -21,754l-436 32 -210 -356zm-13741 13329c-180,-318 -133,-395 -55,-713 999,-185 988,861 55,713zm13369 -12579c187,299 131,367 -44,616 -956,346 -834,-1067 44,-616zm-55794 31350l-55 446c-346,85 -510,-7 -713,-136 -9,-315 0,-483 229,-587 344,-157 446,117 539,278zm38634 -17807c-49,-279 -9,-391 98,-559 1054,-328 776,1207 -98,559zm-7672 23282l-639 46c-357,-1056 1010,-1025 639,-46zm24943 -37486l-207 218c-656,155 -738,-347 -436,-716 490,-87 596,72 644,499zm-22751 39430c-223,405 -487,423 -750,41 -29,-318 54,-376 190,-558l520 70 41 448zm28297 13473c-356,168 -850,246 -775,-320 265,-600 814,-415 775,320zm-31 1076c-293,235 -434,239 -723,-4 -97,-495 137,-715 634,-551 104,168 140,281 89,555zm-60478 -20435l-412 69 -153 -269c-73,-217 -2,-346 105,-524l479 23c194,245 224,469 -18,700zm57523 -33536c-270,492 -854,327 -731,-363l433 -161c316,142 351,98 298,524zm-10368 55989c368,374 -172,665 -421,420 -258,-254 45,-802 421,-420zm16810 -6937c255,330 234,-956 -388,-1141 -188,-362 -96,1110 388,1141zm-35178 -33431c64,212 55,351 -35,539 -436,72 -590,-41 -479,-482 135,-77 335,-167 514,-58zm2180 -1846c-94,282 -107,292 -435,332 -538,-480 208,-980 435,-332z"/>
  <path fill="#373435" stroke="#373435" stroke-width="200" stroke-miterlimit="22.9256" d="M67466 4839l-4856 -8 4 -1699 4856 30 -5 1678zm552 -2033c-1088,-18 -5337,-150 -5856,62 -144,134 -19,2098 -4,2330l5895 -29 -36 -2363zm-517 -108l676 14 -2 2532 -662 44 7 592 -411 8c0,0 4,-555 4,-555l-649 -41c-52,756 172,597 -384,612l-8 -614 -627 -10 -12 618c0,0 -227,1 -419,-3l19 -613 -629 3 14 664 -373 5c0,0 0,51 -40,-649l-764 -26 15 646 -411 -30c0,0 -6,-557 -6,-557l-835 14 -14 -2645 830 -10 33 -605 364 -13 8 615 789 -6 4 -612 285 -1c137,249 67,137 89,613l636 12 18 -602 375 -8 4 610 648 -9 13 -608 365 -12 3 610 666 6c5,-324 -9,-596 -9,-596 0,0 359,-13 359,-13 0,0 31,623 31,623z"/>
  <path fill="#373435" stroke="#373435" stroke-width="200" stroke-miterlimit="22.9256" d="M50179 58569l8 -4856 1699 4 -30 4856 -1678 -5zm2033 552c18,-1088 150,-5337 -62,-5856 -134,-144 -2098,-19 -2330,-4l29 5895 2363 -36zm108 -517l-14 676 -2532 -2 -44 -662 -592 7 -8 -411c0,0 555,4 555,4l41 -649c-756,-52 -597,172 -612,-384l614 -8 10 -627 -618 -12c0,0 -1,-227 3,-419l613 19 -3 -629 -664 14 -5 -373c0,0 -51,0 649,-40l26 -764 -646 15 30 -411c0,0 557,-6 557,-6l-14 -835 2645 -14 10 830 605 33 13 364 -615 8 6 789 612 4 1 285c-249,137 -137,67 -613,89l-12 636 602 18 8 375 -610 4 9 648 608 13 12 365 -610 3 -6 666c324,5 596,-9 596,-9 0,0 13,359 13,359 0,0 -623,31 -623,31z"/>
  <path fill="#373435" stroke="#373435" stroke-width="200" stroke-miterlimit="22.9256" d="M44428 58578l8 -4856 1699 4 -30 4856 -1678 -5zm2033 552c18,-1088 150,-5337 -62,-5856 -134,-144 -2098,-19 -2330,-4l29 5895 2363 -36zm108 -517l-14 676 -2532 -2 -44 -662 -592 7 -8 -411c0,0 555,4 555,4l41 -649c-756,-52 -597,172 -612,-384l614 -8 10 -627 -618 -12c0,0 -1,-227 3,-419l613 19 -3 -629 -664 14 -5 -373c0,0 -51,0 649,-40l26 -763 -646 15 30 -411c0,0 557,-6 557,-6l-14 -835 2645 -14 10 830 605 33 13 364 -615 8 6 789 612 4 1 285c-249,137 -137,67 -613,89l-12 636 602 18 8 375 -610 4 9 648 608 13 12 365 -610 3 -6 666c324,5 596,-9 596,-9 0,0 13,359 13,359 0,0 -623,31 -623,31z"/>
  <path fill="#373435" stroke="#373435" stroke-width="200" stroke-miterlimit="22.9256" d="M25504 56243l-2155 0 10 -799 2143 1 2 799zm-47 1299l-2093 0 25 -807 2109 -1 -41 808z"/>
  <path fill="#373435" stroke="#373435" stroke-width="200" stroke-miterlimit="22.9256" d="M123019 29594l-4856 -8 4 -1699 4856 30 -5 1678zm552 -2033c-1088,-18 -5337,-150 -5856,62 -144,134 -19,2098 -4,2330l5895 -29 -36 -2363zm-517 -108l676 14 -2 2532 -662 44 7 592 -411 8c0,0 4,-555 4,-555l-649 -41c-52,756 172,597 -384,612l-8 -614 -627 -10 -12 618c0,0 -227,1 -419,-3l19 -613 -629 3 14 664 -373 5c0,0 0,51 -40,-649l-764 -26 15 646 -411 -30c0,0 -6,-557 -6,-557l-835 14 -14 -2645 830 -10 33 -605 364 -13 8 615 789 -6 4 -612 285 -1c137,249 67,137 89,613l636 12 18 -602 375 -8 4 610 648 -9 13 -608 365 -12 3 610 666 6c5,-324 -9,-596 -9,-596 0,0 359,-13 359,-13 0,0 31,623 31,623z"/>
  <path fill="#373435" stroke="#373435" stroke-width="200" stroke-miterlimit="22.9256" d="M47311 33839l-4856 -8 4 -1699 4856 30 -5 1678zm552 -2033c-1088,-18 -5337,-150 -5856,62 -144,134 -19,2098 -4,2330l5895 -29 -36 -2363zm-517 -108l676 14 -2 2532 -662 44 7 592 -411 8c0,0 4,-555 4,-555l-649 -41c-52,756 172,597 -384,612l-8 -614 -627 -10 -12 618c0,0 -227,1 -419,-3l19 -613 -629 3 14 664 -373 5c0,0 0,51 -40,-649l-764 -26 15 646 -411 -30c0,0 -6,-557 -6,-557l-835 14 -14 -2645 830 -10 33 -605 364 -13 8 615 789 -6 4 -612 285 -1c137,249 67,137 89,613l636 12 18 -602 375 -8 4 610 648 -9 13 -608 365 -12 3 610 666 6c5,-324 -9,-596 -9,-596 0,0 359,-13 359,-13 0,0 31,623 31,623z"/>
  <path fill="#373435" stroke="#373435" stroke-width="200" stroke-miterlimit="22.9256" d="M44625 20909l-4856 -8 4 -1699 4856 30 -5 1678zm552 -2033c-1088,-18 -5337,-150 -5856,62 -144,134 -19,2098 -4,2330l5895 -29 -36 -2363zm-517 -108l676 14 -2 2532 -662 44 7 592 -411 8c0,0 4,-555 4,-555l-649 -41c-52,756 172,597 -384,612l-8 -614 -627 -10 -12 618c0,0 -227,1 -419,-3l19 -613 -629 3 14 664 -373 5c0,0 0,51 -40,-649l-764 -26 15 646 -411 -30c0,0 -6,-557 -6,-557l-835 14 -14 -2645 830 -10 33 -605 364 -13 8 615 789 -6 4 -612 285 -1c137,249 67,137 89,613l636 12 18 -602 375 -8 4 610 648 -9 13 -608 365 -12 3 610 666 6c5,-324 -9,-596 -9,-596 0,0 359,-13 359,-13 0,0 31,623 31,623z"/>
  <g id="_877764720">
   <polygon fill="#FEFEFE" stroke="#373435" stroke-width="1058" stroke-miterlimit="22.9256" points="88619,20787 105377,20888 106674,22369 106761,38950 105348,40456 88611,40636 86523,38782 86523,22668 "/>
   <polygon fill="#373435" stroke="#373435" stroke-width="1058" stroke-miterlimit="22.9256" points="89864,22327 104022,22412 105118,23663 105191,37672 103997,38944 89857,39096 88093,37530 88093,23916 "/>
  </g>
 </g>
 <g id="Capa_x0020_1_0">
  <metadata id="CorelCorpID_1Corel-Layer"/>
  <g id="_498202560">
   <path fill="#FEFEFE" d="M98244 29371c-360,-33 -556,-33 -588,0 -98,33 -850,883 -948,1013 -65,-392 65,-1928 -33,-2190 -131,-33 -360,-33 -490,33 -98,65 -65,2746 -65,3236 0,196 0,360 0,556 0,229 -65,360 164,360 425,0 360,0 360,-294l0 -1373c98,65 686,883 784,1013 523,686 392,686 915,686 33,0 98,0 98,-33 65,0 33,33 65,-33 98,-98 -1177,-1536 -1307,-1798 164,-196 915,-981 1013,-1144l33 -33z"/>
   <path fill="#FEFEFE" d="M93921 32290c0,0 -32,-603 -57,-762 0,-294 -33,-556 0,-850 98,98 98,131 196,261 163,164 458,556 588,752 327,458 490,686 621,686 131,0 327,-33 458,-98 0,-98 -163,-294 -294,-458 -163,-262 -948,-1275 -980,-1373 163,-163 1046,-1079 915,-1144 -98,-33 -490,0 -523,33 -98,65 -817,915 -948,1013 0,-131 33,-2288 -65,-2157l-65 -33c-98,-33 -327,-33 -392,33 -98,294 -33,1896 -33,2288l0 1732c33,98 66,98 196,98 144,0 321,7 384,-23z"/>
   <path fill="#FEFEFE" d="M100466 31888c-229,65 -621,65 -817,-33 -425,-163 -327,-1111 -294,-1504 65,-294 98,-490 360,-556 229,-65 621,-65 817,33 414,173 487,1901 -65,2059zm-654 -2549c-490,33 -752,98 -915,490 -131,294 -131,915 -98,1307 33,1111 458,1307 1569,1242 490,-33 719,-163 883,-523 98,-294 98,-915 98,-1307 -65,-1079 -425,-1307 -1536,-1209l0 0z"/>
   <path fill="#FEFEFE" d="M102427 32313l0 -2484c458,-98 1405,-131 1373,163 98,490 0,2288 98,2386 33,33 65,33 98,33 0,0 131,0 164,0 98,0 131,0 229,-65 65,-98 33,-1177 33,-1406 0,-1111 65,-1602 -1209,-1602 -294,0 -1046,0 -1307,98 -33,425 0,1046 0,1471 0,98 -65,1373 33,1438 0,0 458,98 490,-33l0 0z"/>
   <path fill="#FEFEFE" d="M90367 31888c-196,33 -229,0 -294,-163 -229,-654 -458,-1798 -654,-2386 -98,0 -196,0 -294,0 -98,0 -196,-33 -229,65l654 2288c98,490 131,850 981,686 425,-65 458,-588 588,-1144 98,-294 490,-1667 490,-1896l-490 0c-196,490 -523,2288 -719,2549l-33 0z"/>
   <path fill="#FEFEFE" d="M92164 29339c-65,229 -33,2125 -33,2680 0,163 -33,327 33,360 196,33 327,33 490,0 65,0 65,-2876 33,-3040 -131,-33 -360,-33 -490,0l-33 0z"/>
   <path fill="#00A859" d="M92279 28181c-410,123 -246,985 369,739 369,-164 246,-985 -369,-739z"/>
  </g>
 </g>
</svg>
