<?xml version="1.0" encoding="UTF-8"?>
<!DOCTYPE svg PUBLIC "-//W3C//DTD SVG 1.1//EN" "http://www.w3.org/Graphics/SVG/1.1/DTD/svg11.dtd">
<!-- Creator: CorelDRAW 2019 -->
<svg xmlns="http://www.w3.org/2000/svg" xml:space="preserve" width="100%" height="100%" version="1.1" shape-rendering="geometricPrecision" text-rendering="geometricPrecision" image-rendering="optimizeQuality" fill-rule="evenodd" clip-rule="evenodd"
viewBox="0 0 475 131"
 xmlns:xlink="http://www.w3.org/1999/xlink"
 xmlns:xodm="http://www.corel.com/coreldraw/odm/2003">
 <g id="Capa_x0020_1">
  <metadata id="CorelCorpID_0Corel-Layer"/>
  <path fill="black" d="M286 38c-11,-1 -17,-1 -18,0 -3,1 -26,27 -29,31 -2,-12 2,-59 -1,-67 -4,-1 -11,-1 -15,1 -3,2 -2,84 -2,99 0,6 0,11 0,17 0,7 -2,11 5,11 13,0 11,0 11,-9l0 -42c3,2 21,27 24,31 16,21 12,21 28,21 1,0 3,0 3,-1 2,0 1,1 2,-1 3,-3 -36,-47 -40,-55 5,-6 28,-30 31,-35z"/>
  <path fill="black" d="M150 128c3,-3 2,-19 2,-24 0,-9 -1,-17 0,-26 3,3 3,4 6,8 5,5 14,17 18,23 10,14 15,21 19,21 4,0 10,-1 14,-3 0,-3 -5,-9 -9,-14 -5,-8 -29,-39 -30,-42 5,-5 32,-33 28,-35 -3,-1 -15,0 -16,1 -3,2 -25,28 -29,31 0,-4 1,-70 -2,-66l-2 -1c-3,-1 -10,-1 -12,1 -3,9 -1,58 -1,70l0 53c1,3 2,3 6,3 3,0 6,1 9,-1z"/>
  <path fill="black" d="M364 98c-1,9 -3,15 -10,17 -7,2 -19,2 -25,-1 -13,-5 -10,-34 -9,-46 2,-9 3,-15 11,-17 7,-2 19,-2 25,1 12,5 10,32 9,46zm-30 -61c-15,1 -23,3 -28,15 -4,9 -4,28 -3,40 1,34 14,40 48,38 15,-1 22,-5 27,-16 3,-9 3,-28 3,-40 -2,-33 -13,-40 -47,-37z"/>
  <path fill="black" d="M414 128l0 -76c14,-3 43,-4 42,5 3,15 0,70 3,73 1,1 2,1 3,1 0,0 4,0 5,0 3,0 4,0 7,-2 2,-3 1,-36 1,-43 0,-34 2,-49 -37,-49 -9,0 -32,0 -40,3 -1,13 0,32 0,45 0,3 -2,42 1,44 0,0 14,3 15,-1z"/>
  <path fill="black" d="M45 115c-6,1 -7,0 -9,-5 -7,-20 -14,-55 -20,-73 -3,0 -6,0 -9,0 -3,0 -6,-1 -7,2l20 70c3,15 4,26 30,21 13,-2 14,-18 18,-35 3,-9 15,-51 15,-58l-15 0c-6,15 -16,70 -22,78z"/>
  <path fill="black" d="M100 37c-2,7 -1,65 -1,82 0,5 -1,10 1,11 6,1 10,1 15,0 2,0 2,-88 1,-93 -4,-1 -11,-1 -15,0z"/>
  <path fill="#42AD39" d="M103 1c-10,3 -6,24 9,18 9,-4 6,-24 -9,-18z"/>
 </g>
</svg>
